<svg width="61" height="65" viewBox="0 0 61 65" fill="none" xmlns="http://www.w3.org/2000/svg">
<path d="M46.5138 19.3155C46.1892 13.4917 45.0566 8.84504 42.6884 5.73498C40.3458 2.6585 36.7332 1.00948 31.2368 1.313C20.342 1.91462 13.6271 11.5217 14.2645 23.0643C14.5864 28.8945 15.8134 33.5457 18.2795 36.6566C20.7194 39.7344 24.4334 41.3792 29.9311 41.0756C35.557 40.7649 39.302 40.0127 41.8513 37.1041C44.4259 34.1666 45.8771 28.9252 46.5138 19.3155Z" stroke="#73A533"/>
<path d="M34.3703 41.378C34.0456 35.5542 32.913 30.9075 30.5448 27.7975C28.2022 24.721 24.5897 23.072 19.0932 23.3755C8.19849 23.9771 1.48354 33.5842 2.12093 45.1268C2.44289 50.957 3.66988 55.6082 6.13598 58.7191C8.5758 61.7969 12.2899 63.4417 17.7875 63.1381C23.4134 62.8274 27.1585 62.0752 29.7077 59.1666C32.2824 56.2291 33.7335 50.9877 34.3703 41.378Z" stroke="#73A533"/>
<path d="M58.7736 40.4776C58.449 34.6538 57.3163 30.0072 54.9482 26.8971C52.6056 23.8206 48.993 22.1716 43.4965 22.4751C32.6018 23.0767 25.8869 32.6838 26.5243 44.2264C26.8462 50.0567 28.0732 54.7078 30.5393 57.8188C32.9791 60.8965 36.6932 62.5413 42.1909 62.2377C47.8168 61.927 51.5618 61.1748 54.1111 58.2662C56.6857 55.3287 58.1369 50.0874 58.7736 40.4776Z" stroke="#73A533"/>
</svg>
