<svg width="61" height="72" viewBox="0 0 61 72" fill="none" xmlns="http://www.w3.org/2000/svg">
<path d="M29.8082 13.0115C29.7129 11.3413 29.3873 10.078 28.763 9.25817C28.1647 8.47235 27.2338 8.02083 25.7168 8.1046C22.781 8.26672 20.911 10.8526 21.0898 14.0895C21.1824 15.7669 21.5341 17.0381 22.1873 17.8621C22.8143 18.653 23.778 19.1041 25.2962 19.0203C26.9426 18.9294 27.8949 18.7085 28.5338 17.9795C29.1983 17.2213 29.6212 15.8074 29.8082 13.0115Z" stroke="#73A533"/>
<path d="M44.6334 13.0115C44.5381 11.3413 44.2125 10.078 43.5882 9.25817C42.9899 8.47235 42.059 8.02083 40.542 8.1046C37.6062 8.26672 35.7362 10.8526 35.915 14.0895C36.0076 15.7669 36.3593 17.0381 37.0125 17.8621C37.6395 18.653 38.6032 19.1041 40.1214 19.0203C41.7678 18.9294 42.7201 18.7085 43.359 17.9795C44.0235 17.2213 44.4464 15.8074 44.6334 13.0115Z" stroke="#73A533"/>
<path d="M53.0142 29.7713C52.919 28.101 52.5934 26.8378 51.9691 26.0179C51.3707 25.2321 50.4399 24.7806 48.9229 24.8644C45.9871 25.0265 44.1171 27.6124 44.2958 30.8493C44.3885 32.5267 44.7401 33.7979 45.3934 34.6219C46.0203 35.4128 46.984 35.8639 48.5022 35.78C50.1487 35.6891 51.1009 35.4682 51.7398 34.7393C52.4044 33.9811 52.8273 32.5672 53.0142 29.7713Z" stroke="#73A533"/>
<path d="M17.1002 26.9177C17.0049 25.2475 16.6793 23.9843 16.055 23.1644C15.4566 22.3786 14.5258 21.9271 13.0088 22.0109C10.073 22.173 8.20302 24.7589 8.38176 27.9958C8.47439 29.6732 8.82606 30.9443 9.47931 31.7684C10.1063 32.5593 11.0699 33.0104 12.5882 32.9265C14.2346 32.8356 15.1869 32.6147 15.8258 31.8858C16.4903 31.1275 16.9132 29.7137 17.1002 26.9177Z" stroke="#73A533"/>
<path d="M58.388 32.8002C57.8377 22.8793 55.9098 14.8945 51.8213 9.52517C47.7591 4.19042 41.5027 1.36082 32.083 1.88099C13.3419 2.9159 1.85055 19.4449 2.94011 39.1757C3.48815 49.1001 5.57809 57.0835 9.83141 62.449C14.0573 67.7798 20.4805 70.6013 29.8971 70.0831C32.2649 69.8775 33.9754 69.5853 35.1737 69.2264C36.389 68.8626 36.9979 68.4531 37.2674 68.076C37.5055 67.7427 37.5314 67.3555 37.3212 66.824C37.1028 66.2718 36.6545 65.6395 36.0522 64.9212C35.6646 64.459 35.2359 63.9867 34.788 63.4932C34.5402 63.2202 34.2866 62.9407 34.0307 62.6529C33.3236 61.8573 32.6163 61.0153 32.0559 60.1481C31.4967 59.2827 31.0636 58.3622 30.9364 57.4084C30.8071 56.4381 30.9984 55.4599 31.6416 54.5113C32.1983 53.6902 33.0769 53.2304 34.0945 52.9597C35.1089 52.6898 36.3227 52.5917 37.6258 52.54C38.1955 52.5174 38.7845 52.5034 39.3881 52.489C41.5835 52.4367 43.9714 52.3798 46.3216 51.8894C49.2923 51.2694 52.1419 49.9643 54.3297 47.1209C56.523 44.2703 58.0973 39.8141 58.388 32.8002Z" stroke="#73A533"/>
</svg>
