<svg width="93" height="53" viewBox="0 0 93 53" fill="none" xmlns="http://www.w3.org/2000/svg">
<path d="M21.2082 13.7539C21.2113 17.3591 21.7544 20.2279 23.0825 22.1874C24.3868 24.112 26.5042 25.2381 29.8746 25.2381C36.5169 25.2381 40.9531 19.6274 40.9531 12.5223C40.9531 8.91065 40.3527 6.0322 38.9638 4.06648C37.5993 2.13533 35.4171 1.00781 32.0456 1.00781C28.5456 1.00781 26.2739 1.35074 24.6541 3.00518C23.0073 4.6872 21.9321 7.82406 21.2082 13.7539Z" stroke="#73A533"/>
<path d="M1.44824 51.999C2.68302 46.813 7.67151 36.4408 14.7838 33.4773C23.6742 29.773 36.0401 29.9147 39.6028 33.4774C44.4185 38.2929 44.7889 44.22 45.9002 51.999" stroke="#73A533"/>
<path d="M72.832 35.8954C71.5527 37.9618 66.3844 42.0946 59.0157 43.2754C49.8048 44.7514 36.9931 44.6949 33.3019 43.2754C28.3127 41.3566 27.9289 38.995 26.7775 35.8954" stroke="#73A533"/>
<path d="M67.1955 13.2461C67.1986 16.8513 67.7417 19.72 69.0698 21.6796C70.3741 23.6041 72.4915 24.7303 75.8619 24.7303C82.5042 24.7303 86.9404 19.1196 86.9404 12.0145C86.9404 8.40284 86.34 5.52439 84.9511 3.55867C83.5866 1.62751 81.4044 0.5 78.0329 0.5C74.5329 0.5 72.2612 0.842928 70.6414 2.49737C68.9946 4.17939 67.9194 7.31625 67.1955 13.2461Z" stroke="#73A533"/>
<path d="M47.4346 51.4912C48.6693 46.3051 53.6578 35.933 60.7702 32.9695C69.6605 29.2652 82.0264 29.4069 85.5892 32.9696C90.4048 37.7851 90.7752 43.7122 91.8865 51.4912" stroke="#73A533"/>
</svg>
